<svg viewBox="0 0 800 800" width="800" height="800" xmlns="http://www.w3.org/2000/svg">
    <!-- Bar4 (Top) -->
    <path d="M 482.5 352 L 456.51 337 L 482.5 322 L 508.49 337 Z" fill="#34D399" />
    <path d="M 482.5 352 L 456.51 337 L 456.51 337 L 482.5 352 Z" fill="#059669" />
    <path d="M 482.5 352 L 508.49 337 L 508.49 337 L 482.5 352 Z" fill="#10B981" />

    <!-- Bar3 -->
    <path d="M 427.5 384 L 401.51 369 L 427.5 354 L 453.49 369 Z" fill="#7DD3FC" />
    <path d="M 427.5 384 L 401.51 369 L 401.51 369 L 427.5 384 Z" fill="#0EA5E9" />
    <path d="M 427.5 384 L 453.49 369 L 453.49 369 L 427.5 384 Z" fill="#38BDF8" />

    <!-- Bar2 -->
    <path d="M 372.5 416 L 346.51 401 L 372.5 386 L 398.49 401 Z" fill="#818CF8" />
    <path d="M 372.5 416 L 346.51 401 L 346.51 401 L 372.5 416 Z" fill="#4F46E5" />
    <path d="M 372.5 416 L 398.49 401 L 398.49 401 L 372.5 416 Z" fill="#6366F1" />

    <!-- Bar1 (Bottom) -->
    <path d="M 317.5 448 L 291.51 433 L 317.5 418 L 343.49 433 Z" fill="#E879F9" />
    <path d="M 317.5 448 L 291.51 433 L 291.51 433 L 317.5 448 Z" fill="#C026D3" />
    <path d="M 317.5 448 L 343.49 433 L 343.49 433 L 317.5 448 Z" fill="#D946EF" />
</svg>
